<?xml version="1.0" encoding="UTF-8"?>
<svg version="1.1" xmlns="http://www.w3.org/2000/svg" width="529" height="472">
<path d="M0 0 C3.90555407 5.13888693 4.61717695 8.62250486 4 15 C3.649375 15.845625 3.29875 16.69125 2.9375 17.5625 C1.60977619 21.01458191 2.13102509 23.45725614 3 27 C6.49901205 29.3326747 7.95788644 29.25094677 12.09375 29.2734375 C13.28871094 29.2940625 14.48367187 29.3146875 15.71484375 29.3359375 C18.23821273 29.36197846 20.76167441 29.38020815 23.28515625 29.390625 C25.07759766 29.42542969 25.07759766 29.42542969 26.90625 29.4609375 C28.55077148 29.47326416 28.55077148 29.47326416 30.22851562 29.48583984 C33 30 33 30 34.86254883 31.85888672 C36.33751946 34.63533928 36.29909967 36.62520937 36.1875 39.75 C36.14689453 41.22726563 36.14689453 41.22726563 36.10546875 42.734375 C36.07066406 43.48203125 36.03585938 44.2296875 36 45 C43.18792704 49.97304255 50.96890681 50.57881156 59.484375 51.71484375 C66.51580077 52.8570454 70.44472193 54.30590544 74.92578125 59.95605469 C76 62 76 62 76 66 C76.94875 66.061875 77.8975 66.12375 78.875 66.1875 C86.01241863 67.23374811 92.02268435 71.30102512 97.8125 75.375 C105.33441526 80.28661888 113.91902596 82.49783216 122.41552734 85.17675781 C153.20640515 94.9846966 153.20640515 94.9846966 161 108 C161.796875 110.61328125 161.796875 110.61328125 162 113 C159.33006838 115.66993162 157.93449432 115.42471017 154.1875 115.5625 C146.42258673 115.50640672 139.83989922 113.27359436 132.63745117 110.49047852 C126.74126604 108.2806043 121.31845794 107.08739161 115 108 C111.90200019 110.19126816 111.19647888 111.41056336 110 115 C106.72948782 154.06775461 112.49643051 199.82026794 121 238 C121.20850586 238.95438965 121.41701172 239.9087793 121.63183594 240.89208984 C127.63472487 267.88766509 137.61959336 293.51416907 154 316 C154.43924805 316.61149902 154.87849609 317.22299805 155.33105469 317.85302734 C161.23633994 326.05125849 167.37693233 333.82374261 174.33203125 341.15625 C176.38926362 343.34902476 178.3685419 345.56546859 180.33203125 347.83984375 C188.90651347 357.68741858 198.24530961 367.53718006 209 375 C210.43666016 376.03447266 210.43666016 376.03447266 211.90234375 377.08984375 C238.8911635 396.22737048 268.59308122 409.22456867 300.625 417.3125 C301.63248291 417.56717041 302.63996582 417.82184082 303.67797852 418.08422852 C306.44455533 418.76229974 309.21910006 419.38394305 312 420 C313.10613647 420.30744141 313.10613647 420.30744141 314.23461914 420.62109375 C317.14003982 421.28175065 319.2764247 421.45424237 321.84765625 419.84008789 C323.77177846 418.11802948 325.47684585 416.30878296 327.1875 414.375 C327.77724609 413.74464844 328.36699219 413.11429687 328.97460938 412.46484375 C330.13165526 411.22671456 331.28105905 409.98139268 332.42211914 408.72851562 C335.91517481 404.90199015 339.32705125 401.56319274 343.6875 398.75 C344.45449219 398.24984375 345.22148437 397.7496875 346.01171875 397.234375 C349.96152524 394.7822358 353.408822 394.47328742 358 395 C361 396.5 361 396.5 363 398 C362.54555403 403.24179918 360.84459033 406.07705215 357.625 410.1875 C356.83351563 411.21230469 356.04203125 412.23710937 355.2265625 413.29296875 C353 416 353 416 351.1484375 417.61328125 C350.76945312 418.07089844 350.39046875 418.52851563 350 419 C350.39347609 421.07253665 350.39347609 421.07253665 351 423 C352.16273438 422.95359375 353.32546875 422.9071875 354.5234375 422.859375 C364.01441355 422.60456358 372.5951653 423.08870796 381.77099609 425.66503906 C387.01894385 427.07155311 391.66962262 427.2249048 397 426 C399.38028291 424.57324827 399.38028291 424.57324827 401 423 C401.66 423 402.32 423 403 423 C403.33 422.34 403.66 421.68 404 421 C404.98613281 421.64839844 405.97226562 422.29679687 406.98828125 422.96484375 C413.55046652 426.24665893 421.02013077 425.56810138 428.1875 425.5625 C430.36517089 425.5661202 432.54205207 425.57574073 434.71955872 425.60325623 C436.68685257 425.62759349 438.65438211 425.62997446 440.62182617 425.63110352 C444.53057776 426.05793908 447.20036771 427.20036771 450 430 C450.9436258 439.35891165 450.9436258 439.35891165 448.5625 443.5 C441.40046244 447.69241223 433.72482363 448.57074095 425.67651367 449.80273438 C419.70297839 450.76478074 414.47855079 452.41261559 409 455 C405.444186 456.6752821 403.63251286 457.26976174 399.875 456.0625 C390.50853678 453.62066731 381.5177341 456.44580581 372.625 459.5 C370.7221205 460.13770793 368.81849799 460.77320399 366.9140625 461.40625 C366.0885791 461.68791016 365.2630957 461.96957031 364.41259766 462.25976562 C360.55375871 463.44373645 356.74223399 464.09207465 352.7265625 464.4296875 C351.91324463 464.50131104 351.09992676 464.57293457 350.26196289 464.64672852 C348.95666626 464.7597229 348.95666626 464.7597229 347.625 464.875 C338.82934193 465.66756216 330.08847861 466.71061475 321.34423828 467.94677734 C306.43803485 469.99953266 291.64126586 470.18635566 276.61816406 470.18530273 C273.16718914 470.18747346 269.71654302 470.20564017 266.265625 470.22460938 C245.13638535 470.28032272 224.39741652 468.76518117 203.5625 465.25 C202.78137848 465.12094269 202.00025696 464.99188538 201.19546509 464.85891724 C181.76552536 461.63793223 162.66304232 457.34284911 144 451 C143.22350098 450.74105957 142.44700195 450.48211914 141.64697266 450.21533203 C119.5498746 442.82951174 99.71828423 433.48294114 80.45703125 420.33203125 C77.48715855 418.30782211 74.44861302 416.4262393 71.375 414.5625 C65.67632385 410.98904443 60.70486795 406.6715744 55.65234375 402.2578125 C53.23546136 400.0180515 53.23546136 400.0180515 51 399 C51 398.34 51 397.68 51 397 C50.45988281 396.78601563 49.91976562 396.57203125 49.36328125 396.3515625 C46.14963099 394.51367326 43.75059745 392.00347641 41.1875 389.375 C40.6519751 388.83157959 40.1164502 388.28815918 39.56469727 387.72827148 C35.5423488 383.6193947 31.70680614 379.3958919 28 375 C27.16984375 374.04738281 26.3396875 373.09476562 25.484375 372.11328125 C18.80284972 364.40756328 12.81815678 356.37050881 7 348 C6.40832031 347.18402344 5.81664063 346.36804688 5.20703125 345.52734375 C-12.32003595 321.25589439 -26.23310753 293.70351077 -38.25 266.375 C-38.61351562 265.55555908 -38.97703125 264.73611816 -39.3515625 263.8918457 C-40.6207228 260.94706751 -41.8177842 257.98087421 -43 255 C-43.28285858 254.29470154 -43.56571716 253.58940308 -43.85714722 252.86273193 C-50.50544045 236.09724445 -54.81611175 218.85659036 -59.0625 201.375 C-65.78712485 171.76188939 -65.78712485 171.76188939 -77.14173889 143.74276733 C-80.26707081 137.39653269 -79.94821286 129.21570312 -78.421875 122.4296875 C-74.19933226 111.71978365 -64.87082598 104.29140999 -55 99 C-53.515 98.505 -53.515 98.505 -52 98 C-52.804375 97.71125 -53.60875 97.4225 -54.4375 97.125 C-57 96 -57 96 -58 94 C-58.27046812 90.41629747 -58.25938588 87.69709955 -57 84.3125 C-53.28064287 80.01199332 -48.32041935 78.21262699 -42.875 76.9375 C-38.10712023 75.7839807 -34.4727858 74.62006437 -31.125 70.9375 C-29.50038361 66.69544611 -29.25616316 62.4848986 -30 58 C-30.78503906 57.04287109 -30.78503906 57.04287109 -31.5859375 56.06640625 C-33 54 -33 54 -32.9765625 51 C-31.78211315 47.33065158 -30.47270487 46.24607 -27.375 44 C-26.02728516 42.98292969 -26.02728516 42.98292969 -24.65234375 41.9453125 C-23.77707031 41.30335937 -22.90179688 40.66140625 -22 40 C-16.91153397 36.25781179 -16.91153397 36.25781179 -13.75 30.9375 C-14.10502378 26.76597056 -15.88009207 25.72162181 -19 23 C-25.91639792 15.69560903 -25.91639792 15.69560903 -27 11 C-26.78849244 6.02957231 -25.18196975 2.80068609 -22 -1 C-15.41064357 -2.87947688 -6.06454174 -3.40206 0 0 Z M-17.875 3.8125 C-20.09044661 6.83281082 -20.09044661 6.83281082 -21 10 C-17.50284756 11.16571748 -14.62196323 11.2042776 -10.9375 11.25 C-9.68839844 11.27578125 -8.43929687 11.3015625 -7.15234375 11.328125 C-6.11207031 11.21984375 -5.07179688 11.1115625 -4 11 C-3.34 10.01 -2.68 9.02 -2 8 C-3.80412643 4.73539027 -4.83394693 3.11070205 -8 1 C-12.48108841 0.33613505 -14.92023991 0.3509642 -17.875 3.8125 Z M-21 11 C-20.67 11.66 -20.34 12.32 -20 13 C-19.67 12.34 -19.34 11.68 -19 11 C-19.66 11 -20.32 11 -21 11 Z M13 51 C12.5403002 56.74624746 13.32499296 59.55130726 17 64 C20.54795555 67.69744806 23.72594947 69.88013522 29 70 C29.66 69.34 30.32 68.68 31 68 C31.02308597 65.77871445 31.02308597 65.77871445 30.625 63.375 C30.51414062 62.55773437 30.40328125 61.74046875 30.2890625 60.8984375 C30.19367188 60.27195312 30.09828125 59.64546875 30 59 C31.32 59.33 32.64 59.66 34 60 C29.60117615 54.34436934 23.81810832 52.67873644 17 51 C15.68 51 14.36 51 13 51 Z M0.3125 63 C-1.17830078 63.556875 -1.17830078 63.556875 -2.69921875 64.125 C-3.45847656 64.41375 -4.21773438 64.7025 -5 65 C-5 65.33 -5 65.66 -5 66 C1.27 66 7.54 66 14 66 C12.35 64.35 10.7 62.7 9 61 C5.62534314 61 3.46034008 61.81493079 0.3125 63 Z M31.125 72.0625 C20.53744 75.33342611 9.88284046 78.0897945 -0.90966797 80.60180664 C-2.6018042 81.00774048 -2.6018042 81.00774048 -4.328125 81.421875 C-5.3274707 81.65487305 -6.32681641 81.88787109 -7.35644531 82.12792969 C-10.08239393 83.02718056 -11.82755386 84.14987524 -14 86 C-12.4375 85.6875 -10.875 85.375 -9.3125 85.0625 C-7.54166667 84.70833333 -5.77083333 84.35416667 -4 84 C-3.19433594 83.81824219 -2.38867188 83.63648437 -1.55859375 83.44921875 C7.0142961 81.94405488 15.00913754 82.66182586 23 86 C23.99 86.33 24.98 86.66 26 87 C25.979375 86.05125 25.95875 85.1025 25.9375 84.125 C26 81 26 81 27 79 C30.64530392 80.47260622 32.36851192 82.42859637 34.6875 85.5625 C35.28949219 86.36816406 35.89148438 87.17382812 36.51171875 88.00390625 C37.24841797 88.99197266 37.24841797 88.99197266 38 90 C39.05310277 91.27003323 39.05310277 91.27003323 41.4375 91.1875 C44.16734675 91.26839983 44.16734675 91.26839983 46 89 C46.59416432 85.25676478 47 81.78305096 47 78 C49.64 80.64 52.28 83.28 55 86 C55.495 84.515 55.495 84.515 56 83 C54.97322789 81.34743758 54.97322789 81.34743758 53.5 79.75 C51.12124806 76.67662628 50.98879484 76.23530841 51.1875 72.0625 C51.455625 71.051875 51.72375 70.04125 52 69 C44.44051597 68.54913004 38.29480417 69.75193282 31.125 72.0625 Z M-17 85 C-17 85.66 -17 86.32 -17 87 C-16.34 86.67 -15.68 86.34 -15 86 C-15.66 85.67 -16.32 85.34 -17 85 Z M16.95098877 100.65731812 C5.71267839 104.05449336 -5.50678061 106.87679626 -17.04052734 109.11132812 C-18.6002124 109.42553711 -18.6002124 109.42553711 -20.19140625 109.74609375 C-21.10092041 109.91810303 -22.01043457 110.0901123 -22.94750977 110.26733398 C-23.62483154 110.50911377 -24.30215332 110.75089355 -25 111 C-25.495 112.485 -25.495 112.485 -26 114 C-23.69 115.32 -21.38 116.64 -19 118 C-19.99 118.99 -20.98 119.98 -22 121 C-20.74523029 124.76430913 -19.30577382 125.05044108 -16 127 C-16 127.66 -16 128.32 -16 129 C-19.83826096 130.91913048 -23.55307955 130.36392242 -27.578125 129.3515625 C-34.16688884 127.09751171 -34.16688884 127.09751171 -36.3046875 124.28125 C-37.55687344 121.46681303 -38 119.07191143 -38 116 C-46.95937 116.22246743 -56.19869722 118.18931543 -63.34765625 123.86328125 C-66.20438983 126.88426235 -67.80394579 129.4427933 -69.1875 133.375 C-68.89751198 138.98143506 -67.07264982 144.32185698 -63.609375 148.796875 C-61.80094147 150.39917007 -61.80094147 150.39917007 -58 150 C-58.02320313 148.68644531 -58.04640625 147.37289062 -58.0703125 146.01953125 C-58.08907651 144.28385987 -58.10727604 142.54818232 -58.125 140.8125 C-58.14175781 139.94818359 -58.15851562 139.08386719 -58.17578125 138.19335938 C-58.23927831 129.90699258 -58.23927831 129.90699258 -56 126 C-53.59454362 124.79727181 -52.05003047 124.89928528 -49.375 124.9375 C-48.14910156 124.95103516 -48.14910156 124.95103516 -46.8984375 124.96484375 C-46.27195312 124.97644531 -45.64546875 124.98804688 -45 125 C-47.97 127.475 -47.97 127.475 -51 130 C-50.4916752 134.44784203 -49.16430777 136.83569223 -46 140 C-41.51327972 142.94650287 -37.47191455 144.78170208 -32 144 C-31.34 143.34 -30.68 142.68 -30 142 C-30 140.02 -30 138.04 -30 136 C-24.06 135.67 -18.12 135.34 -12 135 C-12.33 136.65 -12.66 138.3 -13 140 C-4.58029533 138.89764589 2.44003997 135.76813055 10 132 C10 131.34 10 130.68 10 130 C10.84433594 129.896875 11.68867187 129.79375 12.55859375 129.6875 C16.37966071 128.92415405 19.51578372 127.60547766 23.0625 126 C28.86583155 123.37873407 33.77607777 122.00552079 40.10546875 121.5703125 C57.85863495 120.27452529 74.36205327 117.91614965 91.5625 113.25 C93.34769043 112.78376221 93.34769043 112.78376221 95.16894531 112.30810547 C104.09658187 109.77949037 111.75058037 106.24398487 116.625 98 C118.36223675 93.99339993 118.04534103 91.18136412 117 87 C91.02120868 74.60553849 42.4777851 92.93922291 16.95098877 100.65731812 Z M-19 86 C-19.99 86.66 -20.98 87.32 -22 88 C-20.68 88 -19.36 88 -18 88 C-18.33 87.34 -18.66 86.68 -19 86 Z M-37.8046875 91.453125 C-41.60696217 92.91664204 -44.89071111 94.27937222 -48 97 C-42.65155992 96.46515599 -38.64203897 94.53309233 -34 92 C-35.91591884 90.77055549 -35.91591884 90.77055549 -37.8046875 91.453125 Z M145 101 C145.33 101.99 145.66 102.98 146 104 C146.99 104 147.98 104 149 104 C149 104.66 149 105.32 149 106 C149.61875 106.12375 150.2375 106.2475 150.875 106.375 C153 107 153 107 155 109 C155.46242779 105.08976213 155.46242779 105.08976213 153.375 103.3125 C150.58111267 101.76850963 148.15377756 101.35838381 145 101 Z M94.41796875 120.41015625 C90.33212984 122.31065503 86.61629919 122.89128277 82.1875 123.5 C75.8416236 124.45477472 70.00784839 125.66361451 64 128 C63.68416352 130.97517573 63.68416352 130.97517573 65.375 132.6875 C66.91117258 134.2094457 66.91117258 134.2094457 69 134 C69 134.66 69 135.32 69 136 C59.1 134.02 59.1 134.02 49 132 C48.34 133.65 47.68 135.3 47 137 C44.29816945 138.35091528 41.88191794 138.33858058 38.875 138.5625 C37.77929688 138.64628906 36.68359375 138.73007813 35.5546875 138.81640625 C34.71164063 138.87699219 33.86859375 138.93757813 33 139 C33 140.98 33 142.96 33 145 C31.67741528 145.68774405 30.34013497 146.34711373 29 147 C28.030625 147.53625 27.06125 148.0725 26.0625 148.625 C21.48039746 150.64152443 16.79207128 150.08606909 11.890625 149.8125 C9.02130322 149.75488537 9.02130322 149.75488537 7.109375 151.2734375 C5.50986394 153.76281739 5.88564753 155.91128285 6.33984375 158.74609375 C7.32497353 162.10952501 9.04953099 164.89261601 10.94140625 167.82421875 C12.18563836 170.38155191 12.19185561 172.19103711 12 175 C11.01 175.495 11.01 175.495 10 176 C10 176.99 10 177.98 10 179 C9.27554688 179.03738281 8.55109375 179.07476562 7.8046875 179.11328125 C-0.10095599 179.50814563 -0.10095599 179.50814563 -7 183 C-7.97873538 186.59385054 -7.97873538 186.59385054 -8 190 C-9.65 190 -11.3 190 -13 190 C-14.13112456 193.95893596 -14.22102775 195.54944343 -12.375 199.3125 C-9.69761349 202.3421742 -8.92192743 202.72637716 -5 203 C1.37753592 203.57977599 5.45061364 205.18688402 9.8125 210 C11.8467087 213.4260357 12.12423332 216.61346872 12.09765625 220.546875 C12.09443359 221.39121094 12.09121094 222.23554688 12.08789062 223.10546875 C12.07951172 223.97816406 12.07113281 224.85085937 12.0625 225.75 C12.05798828 226.63816406 12.05347656 227.52632813 12.04882812 228.44140625 C12.037074 230.62767329 12.02064249 232.81380179 12 235 C7.39306401 233.51019483 7.39306401 233.51019483 5.63671875 231.23046875 C2.1488691 223.72369769 2.1488691 223.72369769 3 220 C5 218.1875 5 218.1875 7 217 C6.65657251 213.90915263 5.74044345 212.67555431 3.75 210.1875 C1.26660872 207.71772876 1.26660872 207.71772876 -1.4375 208.12109375 C-4.50540961 209.17334933 -5.69502032 210.39265729 -7.75 212.875 C-8.34296875 213.57367188 -8.9359375 214.27234375 -9.546875 214.9921875 C-11.17837748 217.03507586 -11.17837748 217.03507586 -12 220 C-10.93458984 220.76183594 -10.93458984 220.76183594 -9.84765625 221.5390625 C-8.92855469 222.22742188 -8.00945312 222.91578125 -7.0625 223.625 C-6.14597656 224.29789062 -5.22945312 224.97078125 -4.28515625 225.6640625 C-1.52458115 228.48598371 -1.07862469 230.0897319 -1 234 C-1.66 234.99 -2.32 235.98 -3 237 C-2.46890625 237.268125 -1.9378125 237.53625 -1.390625 237.8125 C4.34539855 240.99452766 6.6787342 243.94588785 9 250 C9.70828057 251.79168752 10.41661467 253.58335389 11.125 255.375 C11.43695313 256.20773437 11.74890625 257.04046875 12.0703125 257.8984375 C12.9198878 260.16028075 12.9198878 260.16028075 15 262 C18.34626543 261.67616786 19.78240969 260.41042425 22 258 C22.99 257.34 23.98 256.68 25 256 C22.88094537 253.82722286 20.75527122 251.66173092 18.625 249.5 C18.02171875 248.87996094 17.4184375 248.25992188 16.796875 247.62109375 C16.21679688 247.03457031 15.63671875 246.44804687 15.0390625 245.84375 C14.23782959 245.02680664 14.23782959 245.02680664 13.42041016 244.19335938 C12.05397977 242.78558001 12.05397977 242.78558001 10 243 C9.67 241.68 9.34 240.36 9 239 C11.64 238.67 14.28 238.34 17 238 C17 233.05 17 228.1 17 223 C18.98 222.01 18.98 222.01 21 221 C20.98839844 222.20398438 20.97679687 223.40796875 20.96484375 224.6484375 C20.95546566 226.22395679 20.94636548 227.79947775 20.9375 229.375 C20.92493164 230.56609375 20.92493164 230.56609375 20.91210938 231.78125 C20.76959849 236.02392222 20.76959849 236.02392222 22 240 C26.40908628 238.70320992 28.5357851 236.58869251 31.375 233.14453125 C33 232 33 232 35.41796875 231.99609375 C38.90968448 233.35368973 40.15714446 235.21383061 42.3125 238.25 C43.00988281 239.20390625 43.70726562 240.1578125 44.42578125 241.140625 C46.07146394 244.12980548 46.44482624 245.65490667 46 249 C45 250 45 250 41.25 250.125 C38.05411684 250.09051205 35.11308275 249.77827069 32 249 C34.32216997 253.51533049 36.98560245 256.01055501 41 259 C41.66 259 42.32 259 43 259 C43.66666667 260.33333333 44.33333333 261.66666667 45 263 C45.34546875 263.60585938 45.6909375 264.21171875 46.046875 264.8359375 C47.13328852 267.30263049 47.26632788 269.19163463 47.375 271.875 C47.75589856 276.73325328 48.94283496 279.25250737 52 283 C54.97 282.67 57.94 282.34 61 282 C61.66 283.98 62.32 285.96 63 288 C63.66 287.67 64.32 287.34 65 287 C65.46523063 285.10466658 65.46523063 285.10466658 65.625 282.9375 C65.810625 280.9884375 65.810625 280.9884375 66 279 C75.95148248 282.80622941 75.95148248 282.80622941 79 288 C80.45170592 291.29289392 81.76609455 294.61988668 83 298 C83.99 298 84.98 298 86 298 C83.09629139 288.75205361 83.09629139 288.75205361 79 280 C80.10221527 281.10221527 81.20329307 282.20557782 82.30078125 283.3125 C83.59575133 284.59853925 84.90909364 285.86610673 86.23046875 287.125 C94.4198579 295.03383911 94.4198579 295.03383911 96 300 C95.86780706 302.84214828 95.52208641 304.3337183 93.76953125 306.5703125 C91.49986459 308.40408291 89.67396388 308.70439571 86.8125 309.1875 C85.91144531 309.34605469 85.01039063 309.50460937 84.08203125 309.66796875 C83.39496094 309.77753906 82.70789063 309.88710938 82 310 C82.71800781 310.56589844 83.43601562 311.13179687 84.17578125 311.71484375 C85.9972723 313.18866431 87.78950916 314.69976464 89.54296875 316.25390625 C95.71419111 321.65528683 95.71419111 321.65528683 103.25 324.5625 C108.98542473 325.9141606 111.83689965 329.16339888 115 334 C116.93361888 338.10894013 117.28220331 340.64050875 116 345 C112.65069617 346.14660852 110.97203034 345.8969642 107.75 344.5 C106.88761719 344.13519531 106.02523437 343.77039063 105.13671875 343.39453125 C102.71752433 342.31899899 100.30496788 341.23156706 97.89453125 340.13671875 C97.18006836 339.81574219 96.46560547 339.49476563 95.72949219 339.1640625 C94.29740512 338.51868753 92.86952814 337.86387862 91.44628906 337.19921875 C87.35240772 335.21969556 87.35240772 335.21969556 83 336 C90.94479366 341.36309231 98.91099463 345.39576132 107.77661133 349.00244141 C114.99940047 351.95230213 121.9416353 355.29625501 128.86230469 358.89208984 C131.23821246 360.12345913 133.62306748 361.33662196 136.0078125 362.55078125 C137.71401649 363.42876538 139.4197532 364.30765824 141.125 365.1875 C142.31609375 365.79343994 142.31609375 365.79343994 143.53125 366.41162109 C154.93668343 372.36006067 164.88497456 382.32746184 172 393 C164.60762951 394.17339214 158.07613885 394.3860325 151.4375 390.5 C150 389 150 389 150 387 C150.66 386.67 151.32 386.34 152 386 C152 385.34 152 384.68 152 384 C148.04 383.34 144.08 382.68 140 382 C139.67 382.66 139.34 383.32 139 384 C140.82115724 388.65406849 142.69122642 391.44990952 147 394 C156.88389052 397.57148985 167.61240927 398.07641714 178 399 C176.68 401.64 175.36 404.28 174 407 C175.32 407 176.64 407 178 407 C177.34 407.99 176.68 408.98 176 410 C175.8509288 412.0745356 175.8509288 412.0745356 177 414 C179.65564665 415.87838422 181.66822195 417.14306209 185 416.78515625 C185.680625 416.64980469 186.36125 416.51445312 187.0625 416.375 C191 416 191 416 193.75 418.125 C195.19833352 419.97564839 196.61778782 421.84945825 198 423.75 C199.80537514 426.11536967 199.80537514 426.11536967 202.26171875 426.91796875 C206.30158597 427.03899188 207.83387777 425.18225208 210.8125 422.5625 C211.78832031 421.71816406 212.76414062 420.87382812 213.76953125 420.00390625 C214.50558594 419.34261719 215.24164063 418.68132812 216 418 C214.66666667 420.66666667 213.33333333 423.33333333 212 426 C212.99 425.67 213.98 425.34 215 425 C215 424.34 215 423.68 215 423 C215.7425 422.87625 216.485 422.7525 217.25 422.625 C219.92389863 422.15697846 219.92389863 422.15697846 221.77734375 420.98828125 C230.31068228 417.19402001 240.87014895 420.33762768 249.14453125 423.43359375 C253.85977909 425.30067299 258.45665706 427.433141 263.06738281 429.54199219 C268.59741668 431.99647019 273.9434984 433.3379825 279.9140625 434.39453125 C283 435 283 435 286.0546875 436.0546875 C291.98113405 437.9568096 297.94140183 437.83739586 303.6875 435.5 C304.450625 435.005 305.21375 434.51 306 434 C305.1470133 431.72517374 305.1470133 431.72517374 302.45556641 431.05444336 C301.34874512 430.73612549 300.24192383 430.41780762 299.1015625 430.08984375 C297.29945313 429.56487305 297.29945313 429.56487305 295.4609375 429.02929688 C293.56214844 428.48885742 293.56214844 428.48885742 291.625 427.9375 C289.13796631 427.21763625 286.65098468 426.49759263 284.1640625 425.77734375 C283.05498535 425.46015381 281.9459082 425.14296387 280.80322266 424.81616211 C278.85710496 424.24954728 276.92291024 423.64097008 275 423 C275 421.68 275 420.36 275 419 C274.17757813 418.97421875 273.35515625 418.9484375 272.5078125 418.921875 C259.78327153 418.27536253 251.31215316 414.7956808 242 406 C241.30261719 405.00484375 240.60523438 404.0096875 239.88671875 402.984375 C236.36643155 398.65935355 231.28447504 397.68110502 226.125 396.125 C208.59150123 390.41299652 189.91067279 382.32952273 181 365 C180.87625 363.824375 180.7525 362.64875 180.625 361.4375 C179.74559535 356.60077441 177.02899306 354.77981839 173.5234375 351.484375 C165.78871155 343.86938165 160.25987439 334.44432616 154.80517578 325.14282227 C151.51485311 319.58556052 151.51485311 319.58556052 147 315 C146.34 315 145.68 315 145 315 C144.7525 314.4225 144.505 313.845 144.25 313.25 C142.83316683 310.6997003 141.12372463 308.98214299 139 307 C138.67 308.32 138.34 309.64 138 311 C137.55269531 310.31292969 137.10539063 309.62585938 136.64453125 308.91796875 C136.03996094 308.01691406 135.43539062 307.11585938 134.8125 306.1875 C134.22082031 305.29417969 133.62914062 304.40085937 133.01953125 303.48046875 C130.85239636 300.81870733 129.09827472 299.45035877 126 298 C124.68 298 123.36 298 122 298 C123.79421631 293.9630133 125.20551875 291.35519526 129 289 C128.3476231 286.25787054 127.56349982 283.61065762 126.6484375 280.9453125 C120.91431737 263.90976289 116.54094034 246.61276149 113 229 C109.92145865 229.5425801 109.92145865 229.5425801 107.734375 231.62890625 C107.40953125 232.26699219 107.0846875 232.90507812 106.75 233.5625 C106.1725 234.696875 105.595 235.83125 105 237 C104.82164485 232.45194365 105.00214565 229.1205746 107 225 C108.485 225.495 108.485 225.495 110 226 C112.34973818 224.10244856 112.34973818 224.10244856 112.125 220.875 C112.08375 219.92625 112.0425 218.9775 112 218 C110.02 217.01 110.02 217.01 108 216 C108.16371094 215.31550781 108.32742187 214.63101563 108.49609375 213.92578125 C109.06447034 210.6256722 109.09630767 207.53445931 109.0625 204.1875 C109.05347656 203.02605469 109.04445313 201.86460937 109.03515625 200.66796875 C109.02355469 199.78753906 109.01195312 198.90710938 109 198 C107.515 197.505 107.515 197.505 106 197 C106.16113281 196.10667969 106.32226562 195.21335937 106.48828125 194.29296875 C107.28952378 188.65874471 107.18421889 182.99210347 107.1875 177.3125 C107.19974609 176.18521484 107.21199219 175.05792969 107.22460938 173.89648438 C107.22654297 172.81302734 107.22847656 171.72957031 107.23046875 170.61328125 C107.23457764 169.63141846 107.23868652 168.64955566 107.24291992 167.63793945 C106.99455464 164.94086721 106.37817854 163.30606789 105 161 C104.01 161 103.02 161 102 161 C102.2165625 160.40058594 102.433125 159.80117187 102.65625 159.18359375 C104.9207872 151.81336389 105.3600382 144.80400643 105.4375 137.125 C105.47037109 135.62731079 105.47037109 135.62731079 105.50390625 134.09936523 C105.48775471 128.09553605 105.01880398 124.55965237 101 120 C98.13629677 118.37723484 97.30997015 118.83071222 94.41796875 120.41015625 Z M-11 157 C-10.67 157.99 -10.34 158.98 -10 160 C-6.99152582 161.22520264 -6.99152582 161.22520264 -4 162 C-4 162.66 -4 163.32 -4 164 C-4.66 163.67 -5.32 163.34 -6 163 C-7.99960012 162.960008 -10.00047242 162.95653201 -12 163 C-11.67 163.99 -11.34 164.98 -11 166 C-6.60309316 167.02253647 -4.01127186 167.16825506 0 165 C1.77277259 163.47992158 1.77277259 163.47992158 3 162 C2.20882096 160.00016466 2.20882096 160.00016466 1 158 C-1.88211302 157.03929566 -3.69850044 156.89418117 -6.6875 156.9375 C-7.49574219 156.94652344 -8.30398437 156.95554688 -9.13671875 156.96484375 C-9.75160156 156.97644531 -10.36648437 156.98804688 -11 157 Z M-47 216 C-46.76702494 217.52353426 -46.51255019 219.04378297 -46.25 220.5625 C-46.11078125 221.40941406 -45.9715625 222.25632813 -45.828125 223.12890625 C-44.99075961 226.03203627 -43.72420759 228.28658359 -42.17724609 230.86450195 C-39.0685983 236.50351942 -36.80030505 242.63696441 -34.33007812 248.57617188 C-29.1375288 260.77409994 -29.1375288 260.77409994 -20 270 C-23.68470588 258.91238503 -27.54313057 248.34801589 -33 238 C-33.82309288 236.37835365 -34.644581 234.75589222 -35.46484375 233.1328125 C-36.3508694 231.40068695 -37.23759 229.66891672 -38.125 227.9375 C-38.75474731 226.68610229 -38.75474731 226.68610229 -39.3972168 225.40942383 C-39.80496338 224.6233374 -40.21270996 223.83725098 -40.6328125 223.02734375 C-41.17252686 221.97148071 -41.17252686 221.97148071 -41.72314453 220.89428711 C-43.19820931 218.70594531 -44.82406889 217.46658789 -47 216 Z M-32 263 C-24.95235 283.53491745 -14.15962257 300.982176 -1.91259766 318.80444336 C4.21267797 327.73279626 10.15784573 336.73669044 15.5625 346.125 C24.69572958 361.87409975 34.9586884 375.83107596 49.80078125 386.51953125 C53.31899775 389.12954452 56.24490815 392.20234511 59.25 395.375 C65.13991838 401.51532865 71.26743984 405.57402146 80 406 C80.66 405.34 81.32 404.68 82 404 C77.4912896 396.87446944 72.49625591 392.90986251 64.515625 390.13671875 C61.48164583 388.76577475 59.65026489 387.04907914 57.3125 384.6875 C56.16201172 383.54861328 56.16201172 383.54861328 54.98828125 382.38671875 C53 380 53 380 52.16796875 377.39453125 C51.14630795 374.62658241 51.14630795 374.62658241 47.65234375 373.625 C43.00707843 371.55822955 41.88826338 369.32014276 39.5625 365 C36.28794893 359.16777028 36.28794893 359.16777028 30.6875 355.875 C29.470625 355.58625 28.25375 355.2975 27 355 C21.64381418 351.13047205 20.23110005 344.31069292 18.08789062 338.35351562 C15.76573033 332.18398915 13.32451518 328.3396947 7.82421875 324.46875 C5.59921363 322.67731119 4.9217284 321.11794902 3.8125 318.5 C1.32391646 313.23186008 -1.9705196 309.15686622 -5.72265625 304.73046875 C-12.287417 296.85951203 -17.22519529 288.75867012 -20.8125 279.1875 C-23.08396913 273.36855717 -26.18042904 267.94850819 -30 263 C-30.66 263 -31.32 263 -32 263 Z M45 300 C45 300.99 45 301.98 45 303 C43.68 303 42.36 303 41 303 C41.33 304.65 41.66 306.3 42 308 C39.03 307.505 39.03 307.505 36 307 C36.42152344 307.48210937 36.84304687 307.96421875 37.27734375 308.4609375 C37.82519531 309.09257812 38.37304688 309.72421875 38.9375 310.375 C39.48277344 311.00148438 40.02804688 311.62796875 40.58984375 312.2734375 C42 314 42 314 43 316 C42.34 316.66 41.68 317.32 41 318 C41.71027344 318.55429687 42.42054687 319.10859375 43.15234375 319.6796875 C44.07144531 320.40414063 44.99054688 321.12859375 45.9375 321.875 C46.85402344 322.59429687 47.77054688 323.31359375 48.71484375 324.0546875 C51 326 51 326 52 328 C47.545 326.02 47.545 326.02 43 324 C44.21894881 327.65684643 45.11009784 327.94316328 48.375 329.8125 C49.28121094 330.33457031 50.18742188 330.85664063 51.12109375 331.39453125 C54.79636134 333.44410382 58.47501873 335.48384717 62.18359375 337.47265625 C64.14826948 338.53810453 66.09788141 339.63159973 68.03515625 340.74609375 C69.01355469 341.30425781 69.99195313 341.86242187 71 342.4375 C71.886875 342.95183594 72.77375 343.46617187 73.6875 343.99609375 C76.08484869 345.34274714 76.08484869 345.34274714 79 344 C78.195625 343.484375 77.39125 342.96875 76.5625 342.4375 C73.28708686 339.32186311 73.61426696 337.37665207 73 333 C70.60414714 330.35412766 70.60414714 330.35412766 68 328 C67.731875 327.195625 67.46375 326.39125 67.1875 325.5625 C65.29740371 321.48387117 61.65300679 319.47215111 58 317 C59.32 316.67 60.64 316.34 62 316 C61.67 315.01 61.34 314.02 61 313 C60.34 313 59.68 313 59 313 C59 312.01 59 311.02 59 310 C61.64 308.68 64.28 307.36 67 306 C66.1038328 303.62080926 66.1038328 303.62080926 62.83203125 302.9296875 C61.49444797 302.56962022 60.15444944 302.2184373 58.8125 301.875 C58.15185547 301.69324219 57.49121094 301.51148438 56.81054688 301.32421875 C52.78429971 300.26698109 49.15588903 299.8061016 45 300 Z M95 358 C101.11586905 364.29060817 106.16656392 368.52315991 115 370 C117.72663297 369.63816869 117.72663297 369.63816869 120 369 C117.4187596 366.14248005 114.96218577 365.15201708 111.32421875 363.89453125 C107.83113651 362.55013489 104.58706766 360.76435659 101.296875 358.98828125 C98.80435884 357.73650754 98.80435884 357.73650754 95 358 Z M110 358 C110 358.66 110 359.32 110 360 C111.65 360 113.3 360 115 360 C115 360.66 115 361.32 115 362 C118.82989106 363.80230168 121.78121808 364.19622241 126 364 C126 363.34 126 362.68 126 362 C120.45108785 359.18150494 116.258654 357.4673486 110 358 Z M77 362 C76.01 363.485 76.01 363.485 75 365 C78.6612488 370.63863212 82.21519557 373.09432607 88.765625 374.578125 C94.8413101 375.37060567 100.88393843 375.22285245 107 375 C107.33 374.34 107.66 373.68 108 373 C102.51586056 366.26946523 93.38928023 363.0844312 85 362 C82.18963412 361.72912136 79.84417531 361.75051094 77 362 Z M128 363 C128.33 363.66 128.66 364.32 129 365 C129.66 364.34 130.32 363.68 131 363 C130.01 363 129.02 363 128 363 Z M112 373 C113.78174788 375.30142435 115.16304165 376.80034391 118.046875 377.48828125 C120.0246611 377.72323102 122.01271872 377.86751458 124 378 C121.65085508 375.65085508 120.04320554 375.26859643 116.875 374.375 C115.96492187 374.11460937 115.05484375 373.85421875 114.1171875 373.5859375 C113.41851562 373.39257812 112.71984375 373.19921875 112 373 Z M111 385 C111 385.66 111 386.32 111 387 C112.38782485 387.8466034 113.78569397 388.67675339 115.1875 389.5 C115.96480469 389.9640625 116.74210938 390.428125 117.54296875 390.90625 C120.24103386 392.10729647 122.0806982 392.20741043 125 392 C121.39190497 387.24387473 116.52563577 386.39195405 111 385 Z M101 419 C103.74794446 422.14619728 107.20101995 424.13420092 110.75 426.25 C111.40379639 426.6411499 112.05759277 427.0322998 112.73120117 427.43530273 C117.48100159 430.22420237 122.32256357 432.73223629 127.3125 435.0625 C128.2720459 435.51061035 128.2720459 435.51061035 129.25097656 435.96777344 C132.49485038 437.50831573 132.49485038 437.50831573 136 438 C136 438.66 136 439.32 136 440 C127.26763588 436.88984292 119.0625728 433.18510488 110.82421875 428.96484375 C110.20337402 428.64757324 109.5825293 428.33030273 108.94287109 428.00341797 C107.55999612 427.28921639 106.1833157 426.5629655 104.81103516 425.82861328 C104.09608887 425.45333496 103.38114258 425.07805664 102.64453125 424.69140625 C101.99460205 424.34408447 101.34467285 423.9967627 100.67504883 423.63891602 C100.12228271 423.42807373 99.5695166 423.21723145 99 423 C98.01 423.495 98.01 423.495 97 424 C121.68792486 439.65372639 150.25294008 454.14080875 180 456 C180.66 455.67 181.32 455.34 182 455 C182 454.34 182 453.68 182 453 C177.83494653 451.28772056 173.66809999 449.57984814 169.5 447.875 C168.88153198 447.62190063 168.26306396 447.36880127 167.62585449 447.10803223 C160.53981311 444.21139678 153.44597815 441.36359413 146.25 438.75 C137.01028591 435.3325715 128.16155944 431.26378205 119.4921875 426.58984375 C118.73349365 426.18096924 117.9747998 425.77209473 117.19311523 425.35083008 C115.72665528 424.55387203 114.26490484 423.74816466 112.80883789 422.93237305 C108.85636423 420.76874878 105.56618857 419.44165943 101 419 Z M240 425 C233.35898236 428.73577693 233.35898236 428.73577693 228 434 C228.13641377 436.21858253 228.13641377 436.21858253 229 438 C230.65 437.01 232.3 436.02 234 435 C234.99 436.32 235.98 437.64 237 439 C240.72614153 437.88145414 240.72614153 437.88145414 243 435 C243.23434712 433.0870598 243.23434712 433.0870598 243.25 431 C243.27578125 430.29875 243.3015625 429.5975 243.328125 428.875 C243.21984375 428.25625 243.1115625 427.6375 243 427 C242.01 426.34 241.02 425.68 240 425 Z M319 433 C319 433.66 319 434.32 319 435 C328.32159267 436.10375077 337.62395248 436.62185537 347 437 C347.71075684 437.03013184 348.42151367 437.06026367 349.15380859 437.09130859 C351.06022554 437.16386798 352.96766965 437.20779353 354.875 437.25 C355.94492187 437.27578125 357.01484375 437.3015625 358.1171875 437.328125 C361.43594811 436.95037989 363.3208409 435.95746679 366 434 C366 433.67 366 433.34 366 433 C355.00681802 431.2214129 344.09051949 429.70021707 332.9375 429.625 C332.11217773 429.61146484 331.28685547 429.59792969 330.43652344 429.58398438 C325.84780593 429.61835679 322.68842275 429.95723676 319 433 Z M183 454 C183.99 454.33 184.98 454.66 186 455 C186 455.66 186 456.32 186 457 C189.3 457 192.6 457 196 457 C195.67 456.34 195.34 455.68 195 455 C192.1840151 454.53101037 192.1840151 454.53101037 188.9375 454.375 C187.28041016 454.26285156 187.28041016 454.26285156 185.58984375 454.1484375 C184.73519531 454.09945313 183.88054687 454.05046875 183 454 Z M197 456 C197 456.66 197 457.32 197 458 C204.7121616 459.86328498 212.45376476 460.99985354 220.3125 462.0625 C221.55451172 462.23587891 222.79652344 462.40925781 224.07617188 462.58789062 C236.93809169 464.34822679 249.54922331 465.18665047 262.51708984 465.18530273 C264.86444225 465.18749016 267.21132381 465.2057233 269.55859375 465.22460938 C278.90307222 465.25812193 287.7752978 464.63897719 297 463 C293.85950171 459.85950171 290.83003699 460.01556968 286.48583984 459.93408203 C285.14413428 459.95438709 283.80249174 459.9792057 282.4609375 460.0078125 C280.97787163 460.02534606 279.49479824 460.04225265 278.01171875 460.05859375 C275.70144228 460.08934537 273.39155451 460.12466517 271.08154297 460.17138672 C262.7547652 460.33058827 255.28819954 460.18040795 247.26855469 457.59790039 C243.97508236 456.72987265 241.30005145 457.3147225 238 458 C235.04191006 458.18320069 232.08817876 458.18994638 229.125 458.1875 C227.89402588 458.1884668 227.89402588 458.1884668 226.63818359 458.18945312 C219.52353298 458.12937931 212.57960924 457.41193111 205.5390625 456.4375 C202.63424734 456.07840585 199.91857597 455.90985094 197 456 Z " fill="#F3F3F3" transform="translate(79,2)"/>
<path d="M0 0 C2.21161309 2.03708382 3.58544734 3.83957243 4.82421875 6.57421875 C5.28344727 7.57485352 5.28344727 7.57485352 5.75195312 8.59570312 C6.06068359 9.28599609 6.36941406 9.97628906 6.6875 10.6875 C7.00783203 11.38939453 7.32816406 12.09128906 7.65820312 12.81445312 C8.44479147 14.54025143 9.22320597 16.2697711 10 18 C9.79503906 17.41992188 9.59007812 16.83984375 9.37890625 16.2421875 C7.85990187 11.8378016 6.5952849 7.64322223 6 3 C13.59222749 6.79611374 19.60863927 13.86403881 24 21 C24 22.32 24 23.64 24 25 C23.34 25.33 22.68 25.66 22 26 C22 27.65 22 29.3 22 31 C21.0925 30.79375 20.185 30.5875 19.25 30.375 C15.88972103 29.9872755 14.75924185 30.19588033 12 32 C6.73653054 27.70013635 5.18380612 22.93922176 3.1875 16.5625 C2.87619141 15.63373047 2.56488281 14.70496094 2.24414062 13.74804688 C0.7228258 9.05036044 -0.42580005 5.00106336 0 0 Z " fill="#E8E8E8" transform="translate(119,214)"/>
<path d="M0 0 C0.99 0.33 1.98 0.66 3 1 C3.309375 1.969375 3.61875 2.93875 3.9375 3.9375 C4.288125 4.948125 4.63875 5.95875 5 7 C5.66773438 7.268125 6.33546875 7.53625 7.0234375 7.8125 C7.67570313 8.204375 8.32796875 8.59625 9 9 C9.57421875 11.78515625 9.57421875 11.78515625 9.6875 15.0625 C9.50487039 18.8466325 9.50487039 18.8466325 11 22 C10.91062197 23.52519276 10.75462854 25.04681929 10.5625 26.5625 C10.46066406 27.38878906 10.35882813 28.21507812 10.25390625 29.06640625 C10.17011719 29.70449219 10.08632812 30.34257812 10 31 C8.68 31.33 7.36 31.66 6 32 C4.84372186 30.44521347 3.7003781 28.88080281 2.5625 27.3125 C1.92441406 26.44238281 1.28632813 25.57226562 0.62890625 24.67578125 C-2.07237724 20.23842108 -2.15489858 16.11190258 -2.1875 11 C-2.20167969 9.989375 -2.21585938 8.97875 -2.23046875 7.9375 C-1.99304931 4.9114081 -1.27324223 2.73772243 0 0 Z " fill="#E6E6E6" transform="translate(161,211)"/>
<path d="M0 0 C0.99 0 1.98 0 3 0 C4.39664425 6.42456354 3.9876783 13.0246434 1 19 C1.66 19 2.32 19 3 19 C3.10957031 18.24074219 3.21914062 17.48148438 3.33203125 16.69921875 C3.49058594 15.70535156 3.64914063 14.71148437 3.8125 13.6875 C3.96332031 12.70136719 4.11414063 11.71523437 4.26953125 10.69921875 C5.03436705 7.87300731 5.75258762 6.8040872 8 5 C8.75361393 12.87107886 7.23702199 18.32348051 3 25 C2.34 25.66 1.68 26.32 1 27 C-1 26.8125 -1 26.8125 -3 26 C-5.86547772 21.70178342 -5.47622595 18.04657345 -5 13 C-3.95433361 8.21017331 -2.72877156 4.09315735 0 0 Z " fill="#DDDDDD" transform="translate(173,142)"/>
<path d="M0 0 C1.6074328 0.93188881 3.21082799 1.87074435 4.8125 2.8125 C5.70582031 3.33457031 6.59914063 3.85664063 7.51953125 4.39453125 C9.71666506 5.81661313 11.41033575 6.93239748 13 9 C13.5154245 11.79881044 13.22876238 14.11759395 13 17 C12.34 17.66 11.68 18.32 11 19 C6.89497052 18.95975461 5.2992897 18.2702038 2.2265625 15.49609375 C1.3447188 14.48921251 0.47766927 13.46920405 -0.375 12.4375 C-1.04982422 11.65729492 -1.04982422 11.65729492 -1.73828125 10.86132812 C-2.83862217 9.58540089 -3.92117164 8.29416762 -5 7 C-4.67 6.01 -4.34 5.02 -4 4 C-1.36 5.65 1.28 7.3 4 9 C3.34 7.88625 2.68 6.7725 2 5.625 C0 2.25 0 2.25 0 0 Z " fill="#E5E5E5" transform="translate(88,196)"/>
<path d="M0 0 C6.98865186 -0.74181221 12.58612222 4.0990229 18 8 C20.32896131 10.2329647 22.09219935 12.38358767 24 15 C17.01536583 14.36503326 8.43313988 13.12686392 3.1171875 8.28515625 C1.03118335 5.46607064 0 3.53691824 0 0 Z " fill="#DFDFDF" transform="translate(98,185)"/>
<path d="M0 0 C4.51169455 1.62873915 8.49187392 3.91813731 12.625 6.3125 C18.93780216 9.92312726 25.31229109 13.13017855 32 16 C32.66 16.33 33.32 16.66 34 17 C34 17.66 34 18.32 34 19 C27.73848352 17.85689434 22.32538015 16.06067328 16.625 13.25 C15.89547119 12.89873047 15.16594238 12.54746094 14.41430664 12.18554688 C8.50366137 9.31393612 2.70910491 6.25529956 -3 3 C-2.01 2.67 -1.02 2.34 0 2 C0 1.34 0 0.68 0 0 Z " fill="#A4A4A4" transform="translate(181,423)"/>
<path d="M0 0 C0.67095703 0.58007812 0.67095703 0.58007812 1.35546875 1.171875 C4.15907075 3.58691808 6.96010466 5.96877756 9.875 8.25 C12 10 12 10 13 12 C13.66 12.33 14.32 12.66 15 13 C12.81619325 13.5361079 10.62771417 14.05320098 8.4375 14.5625 C7.21933594 14.85253906 6.00117188 15.14257812 4.74609375 15.44140625 C0.86364894 16.02033181 -2.16555673 15.74517495 -6 15 C-5.38125 14.773125 -4.7625 14.54625 -4.125 14.3125 C-1.23941129 12.53022462 -0.85327524 11.27088842 0 8 C0.14983588 5.30794876 0.09155081 2.70074884 0 0 Z " fill="#CACACA" transform="translate(125,79)"/>
<path d="M0 0 C4.57093206 2.10262875 7.30429122 4.67883833 9.4375 9.25 C9.664375 9.971875 9.89125 10.69375 10.125 11.4375 C7.54039999 12.41259909 6.48733411 12.59442639 3.90625 11.4765625 C3.1534375 11.00992188 2.400625 10.54328125 1.625 10.0625 C-1.21758386 8.31995715 -3.59011315 7.07954607 -6.875 6.4375 C-6.5625 4.0625 -6.5625 4.0625 -5.875 1.4375 C-2.875 -0.5625 -2.875 -0.5625 0 0 Z " fill="#DADADA" transform="translate(80.875,118.5625)"/>
<path d="M0 0 C0.55171875 0.74636719 1.1034375 1.49273437 1.671875 2.26171875 C4.01622762 5.01908651 6.25611738 6.80344719 9.25 8.8125 C10.14203125 9.41707031 11.0340625 10.02164063 11.953125 10.64453125 C12.62859375 11.09183594 13.3040625 11.53914062 14 12 C13.01 13.485 13.01 13.485 12 15 C12.7425 15.680625 12.7425 15.680625 13.5 16.375 C15 18 15 18 15 20 C9.61651963 19.36664937 5.79089107 16.79089107 2 13 C1.54337847 10.80708918 1.179588 8.59414111 0.875 6.375 C0.70742187 5.18648437 0.53984375 3.99796875 0.3671875 2.7734375 C0.24601562 1.85820312 0.12484375 0.94296875 0 0 Z " fill="#D8D8D8" transform="translate(108,164)"/>
<path d="M0 0 C1.84765625 1.5234375 1.84765625 1.5234375 3 3 C-2.81770115 5.69338016 -6.43610444 6.10086822 -12.74609375 5.1953125 C-15.62327387 4.94599013 -17.41853951 5.78097699 -20 7 C-23.3125 7.125 -23.3125 7.125 -26 7 C-20.34169837 -0.45867034 -8.63707169 -1.34091524 0 0 Z " fill="#D4D4D4" transform="translate(127,101)"/>
<path d="M0 0 C6.2412876 2.30656281 11.99852065 5.57213096 17 10 C17 10.99 17 11.98 17 13 C12.72699902 13.40670096 10.66558613 13.48266314 7.12890625 10.91796875 C5.85853516 9.56638672 5.85853516 9.56638672 4.5625 8.1875 C3.69753906 7.29417969 2.83257812 6.40085938 1.94140625 5.48046875 C0 3 0 3 0 0 Z " fill="#DADADA" transform="translate(90,190)"/>
<path d="M0 0 C9.03797468 8.78691983 9.03797468 8.78691983 11 15 C11 15.99 11 16.98 11 18 C6.13644853 15.92614797 3.70335262 12.42872767 1 8 C0.06251235 5.64301453 -0.48008664 3.4955841 -1 1 C-0.67 0.67 -0.34 0.34 0 0 Z " fill="#D5D5D5" transform="translate(235,344)"/>
<path d="M0 0 C3.85478218 -0.35858439 5.57759458 -0.2754818 8.875 1.875 C9.57625 2.57625 10.2775 3.2775 11 4 C11 4.66 11 5.32 11 6 C3.61538462 7.35384615 3.61538462 7.35384615 0.5 5.5625 C0.005 5.046875 -0.49 4.53125 -1 4 C-0.67 2.68 -0.34 1.36 0 0 Z " fill="#CCCCCC" transform="translate(85,112)"/>
<path d="M0 0 C7.9899083 -0.90794412 15.43736327 2.62490885 22 7 C22 7.66 22 8.32 22 9 C14.39162534 6.92957946 7.2271408 4.14169523 0 1 C0 0.67 0 0.34 0 0 Z " fill="#C7C7C7" transform="translate(103,183)"/>
<path d="M0 0 C3.91168959 0.37703032 7.15600001 1.84265212 10.6875 3.5 C11.64011719 3.9434375 12.59273437 4.386875 13.57421875 4.84375 C15.05557952 5.54984145 16.53221395 6.26610698 18 7 C18 7.66 18 8.32 18 9 C10.73763698 7.69039355 4.6169252 5.24043814 -2 2 C-1.34 1.34 -0.68 0.68 0 0 Z " fill="#B2B2B2" transform="translate(197,433)"/>
<path d="M0 0 C1.32 0.33 2.64 0.66 4 1 C4 1.66 4 2.32 4 3 C4.66 3.66 5.32 4.32 6 5 C5.01 5.33 4.02 5.66 3 6 C1.53706037 8.31869204 1.53706037 8.31869204 0.3125 11.0625 C-0.12449219 11.98160156 -0.56148437 12.90070313 -1.01171875 13.84765625 C-1.50091797 14.91306641 -1.50091797 14.91306641 -2 16 C-2.33 16 -2.66 16 -3 16 C-3.32712342 9.86946489 -3.39366878 5.37330889 0 0 Z " fill="#C9C9C9" transform="translate(186,226)"/>
<path d="M0 0 C2.375 0.3125 2.375 0.3125 5 1 C7.13586678 4.20380017 7.23132175 5.01939967 7.125 8.6875 C7.10695312 9.49574219 7.08890625 10.30398438 7.0703125 11.13671875 C7.03550781 12.05904297 7.03550781 12.05904297 7 13 C6.34 13 5.68 13 5 13 C4.15930585 11.39967863 3.32768495 9.79458829 2.5 8.1875 C1.80390625 6.84751953 1.80390625 6.84751953 1.09375 5.48046875 C0 3 0 3 0 0 Z " fill="#CBCBCB" transform="translate(194,278)"/>
<path d="M0 0 C0.8125 1.6875 0.8125 1.6875 1 4 C-1.4375 6.75 -1.4375 6.75 -4 9 C-5.65 7.35 -7.3 5.7 -9 4 C-8.67 3.34 -8.34 2.68 -8 2 C-5.36 2 -2.72 2 0 2 C0 1.34 0 0.68 0 0 Z " fill="#DADADA" transform="translate(96,238)"/>
<path d="M0 0 C2.475 0.99 2.475 0.99 5 2 C3.25 4 3.25 4 1 6 C-0.32 6 -1.64 6 -3 6 C-3.33 7.32 -3.66 8.64 -4 10 C-4.66 10 -5.32 10 -6 10 C-5.58578031 5.16743695 -3.53586014 3.17320782 0 0 Z " fill="#C6C6C6" transform="translate(171,91)"/>
<path d="M0 0 C0.33 0 0.66 0 1 0 C1.3690205 10.55808656 1.3690205 10.55808656 -1 15 C-1.99 14.34 -2.98 13.68 -4 13 C-3.71682074 11.39431334 -3.42312209 9.79047953 -3.125 8.1875 C-2.96257812 7.29417969 -2.80015625 6.40085938 -2.6328125 5.48046875 C-2 3 -2 3 0 0 Z " fill="#AFAFAF" transform="translate(180,147)"/>
<path d="M0 0 C4.40114397 0.50298788 6.71195019 2.08772731 10 5 C7.875 5.75 7.875 5.75 5 6 C1.6875 4.0625 1.6875 4.0625 -1 2 C-0.67 1.34 -0.34 0.68 0 0 Z " fill="#C7C7C7" transform="translate(188,428)"/>
<path d="M0 0 C1.9375 0.6875 1.9375 0.6875 2.9375 2.6875 C-0.89239106 4.48980168 -3.84371808 4.88372241 -8.0625 4.6875 C-3.07528772 -0.46595269 -3.07528772 -0.46595269 0 0 Z " fill="#BEBEBE" transform="translate(109.0625,103.3125)"/>
<path d="M0 0 C4.455 0.99 4.455 0.99 9 2 C8.01 2.33 7.02 2.66 6 3 C5.67 3.66 5.34 4.32 5 5 C2.525 4.01 2.525 4.01 0 3 C0 2.01 0 1.02 0 0 Z " fill="#C1C1C1" transform="translate(190,84)"/>
<path d="M0 0 C0.33 0.66 0.66 1.32 1 2 C-0.5778125 2.2165625 -0.5778125 2.2165625 -2.1875 2.4375 C-5.15460549 2.87526966 -8.06794366 3.37804866 -11 4 C-11 3.34 -11 2.68 -11 2 C-9.73392393 1.46770674 -8.46189588 0.94955456 -7.1875 0.4375 C-6.47980469 0.14746094 -5.77210937 -0.14257812 -5.04296875 -0.44140625 C-3 -1 -3 -1 0 0 Z " fill="#474747" transform="translate(76,67)"/>
<path d="M0 0 C3.08669204 3.08669204 3.44855089 3.91927658 4 8 C3.34 8 2.68 8 2 8 C1.67 8.66 1.34 9.32 1 10 C0.67 6.7 0.34 3.4 0 0 Z " fill="#B1B1B1" transform="translate(119,214)"/>
<path d="M0 0 C1.9375 0.6875 1.9375 0.6875 3.9375 1.6875 C3.9375 2.3475 3.9375 3.0075 3.9375 3.6875 C-0.5175 2.6975 -0.5175 2.6975 -5.0625 1.6875 C-2.0625 -0.3125 -2.0625 -0.3125 0 0 Z " fill="#868686" transform="translate(211.0625,438.3125)"/>
<path d="M0 0 C2.625 0.375 2.625 0.375 5 1 C5.33 1.99 5.66 2.98 6 4 C3.36 3.34 0.72 2.68 -2 2 C-1.34 1.34 -0.68 0.68 0 0 Z " fill="#B4B4B4" transform="translate(119,188)"/>
<path d="M0 0 C1 3 1 3 -0.4375 6.1875 C-1.2109375 7.5796875 -1.2109375 7.5796875 -2 9 C-2.66 9 -3.32 9 -4 9 C-3.46930939 5.17902761 -2.50298434 2.93828597 0 0 Z " fill="#ACACAC" transform="translate(169,92)"/>
<path d="" fill="#515151" transform="translate(0,0)"/>
<path d="" fill="#555555" transform="translate(0,0)"/>
</svg>
