<?xml version="1.0" standalone="no"?>
<!DOCTYPE svg PUBLIC "-//W3C//DTD SVG 20010904//EN"
 "http://www.w3.org/TR/2001/REC-SVG-20010904/DTD/svg10.dtd">
<svg version="1.0" xmlns="http://www.w3.org/2000/svg"
 width="529.000000pt" height="472.000000pt" viewBox="0 0 529.000000 472.000000"
 preserveAspectRatio="xMidYMid meet">

<g transform="translate(0.000000,472.000000) scale(0.100000,-0.100000)"
fill="#000000" stroke="none">
<path d="M618 4708 c-45 -12 -88 -59 -88 -95 0 -37 39 -110 69 -129 39 -25 61
-56 61 -87 0 -33 -29 -65 -128 -139 -34 -27 -62 -56 -62 -65 0 -9 10 -36 21
-60 45 -93 -19 -201 -130 -218 -65 -11 -117 -40 -134 -78 -21 -43 -21 -57 -1
-85 20 -29 55 -28 113 2 54 29 121 48 121 35 0 -13 -47 -34 -140 -63 -141 -43
-233 -114 -291 -226 -35 -68 -33 -176 5 -249 60 -117 117 -306 201 -666 114
-492 419 -1103 773 -1550 76 -95 281 -304 367 -374 91 -73 315 -222 419 -278
254 -138 613 -256 946 -312 288 -48 350 -53 699 -58 346 -5 493 2 686 33 50 7
115 14 146 14 62 0 172 26 282 65 90 33 186 42 248 22 42 -13 48 -13 70 4 34
27 98 46 226 69 62 11 128 28 147 37 30 14 35 22 41 64 4 27 2 56 -4 66 -24
45 -36 48 -210 48 -155 0 -169 1 -205 23 -38 23 -39 23 -60 4 -55 -50 -108
-55 -230 -22 -66 18 -93 21 -165 15 -83 -6 -141 3 -141 23 0 10 23 43 93 133
70 90 60 129 -33 129 -62 0 -121 -40 -235 -157 -60 -61 -109 -103 -120 -103
-41 0 -314 70 -425 108 -415 143 -719 347 -1008 676 -193 220 -284 351 -382
551 -142 291 -202 550 -249 1090 -33 365 -44 597 -32 642 27 98 91 109 266 48
115 -40 231 -53 255 -29 29 29 -66 132 -167 182 -74 38 -285 118 -360 138 -31
8 -87 35 -124 59 -74 49 -139 81 -181 90 -16 3 -28 12 -28 20 0 57 -62 99
-171 115 -101 15 -176 37 -209 62 -26 19 -28 24 -23 77 8 82 -1 87 -148 83
-180 -4 -209 20 -175 146 16 60 16 65 -1 100 -10 19 -29 44 -43 53 -32 23
-104 31 -152 17z m109 -28 c32 -19 51 -59 38 -79 -3 -6 -41 -11 -86 -11 -72 0
-79 -2 -79 -19 0 -11 5 -23 10 -26 6 -3 10 -11 10 -17 0 -6 -9 -3 -20 7 -34
30 -27 90 14 131 39 39 67 43 113 14z m261 -496 c72 -21 122 -46 147 -74 l20
-22 -32 7 c-18 3 -33 5 -33 3 0 -2 4 -19 10 -37 27 -96 -96 -75 -161 28 -29
45 -40 111 -18 111 6 0 36 -7 67 -16z m-81 -116 c13 -12 23 -25 23 -30 0 -5
-37 -6 -82 -3 -64 5 -94 3 -128 -9 -52 -18 -70 -20 -70 -6 0 11 174 69 209 70
14 0 35 -10 48 -22z m409 -59 c3 -6 1 -22 -6 -35 -12 -21 -9 -30 30 -89 23
-36 40 -69 36 -72 -4 -4 -32 19 -64 50 l-57 56 3 -47 c5 -65 -22 -101 -64 -87
-16 6 -39 26 -52 45 -33 50 -60 80 -72 80 -18 0 -24 -32 -12 -63 6 -17 10 -32
8 -34 -2 -2 -20 7 -41 21 -20 14 -53 28 -72 32 -64 12 -204 -3 -288 -30 -90
-29 -95 -30 -95 -16 0 5 15 16 33 23 33 14 276 79 382 102 33 7 96 25 140 38
125 39 178 47 191 26z m644 -178 c30 -58 -6 -143 -84 -195 -92 -62 -425 -139
-661 -153 -109 -6 -160 -21 -288 -85 -114 -57 -182 -85 -238 -97 l-40 -9 7 30
6 31 -53 -6 c-30 -4 -69 -7 -87 -7 -26 0 -33 -4 -31 -17 3 -38 -2 -53 -21 -63
-32 -17 -98 8 -148 56 -55 53 -56 90 -3 116 l33 17 -35 6 c-86 16 -120 -38
-112 -178 6 -87 6 -88 -17 -85 -32 4 -80 86 -85 146 -6 55 20 101 76 139 36
24 137 59 202 69 l38 6 -6 -35 c-5 -31 -1 -41 24 -66 39 -38 135 -68 169 -52
31 14 30 27 -3 48 -41 26 -45 36 -21 54 21 17 21 17 -20 38 -73 37 -57 48 113
81 61 12 182 44 270 70 282 84 338 99 460 120 177 30 255 37 407 39 126 1 138
-1 148 -18z m361 -164 c36 -24 48 -52 29 -71 -8 -8 -15 -6 -28 10 -9 11 -34
31 -54 43 -21 13 -38 27 -38 32 0 17 57 9 91 -14z m-496 -197 c17 -30 20 -51
19 -155 -1 -77 -7 -137 -17 -167 -12 -40 -13 -48 -1 -48 7 0 18 -10 25 -22 16
-30 22 -169 11 -257 -8 -68 -7 -76 11 -94 17 -17 19 -28 14 -86 -4 -36 -9 -77
-13 -91 -4 -14 -3 -22 1 -18 4 4 17 3 27 -3 16 -9 19 -17 14 -41 -8 -42 -26
-64 -38 -46 -7 10 -11 9 -22 -5 -14 -18 -31 -115 -21 -125 3 -3 5 4 5 15 0 24
65 101 76 91 4 -5 19 -65 34 -135 15 -71 44 -183 64 -251 20 -68 36 -130 36
-138 0 -8 10 -28 22 -45 23 -30 23 -31 3 -44 -55 -38 -75 -85 -35 -85 28 0 90
-58 111 -105 17 -37 19 -38 19 -12 0 17 5 27 15 27 8 0 15 -4 15 -9 0 -4 23
-32 51 -61 29 -28 77 -93 107 -143 63 -105 124 -187 177 -237 57 -54 81 -90
65 -100 -10 -6 -6 -20 19 -58 77 -121 214 -211 426 -282 105 -35 113 -40 178
-104 90 -90 156 -121 258 -121 71 0 75 -1 71 -21 -4 -23 32 -42 131 -69 140
-37 167 -46 167 -56 0 -14 -79 -49 -112 -49 -15 0 -62 11 -105 24 -43 13 -95
26 -115 29 -21 3 -77 23 -125 45 -216 96 -308 108 -412 54 -35 -18 -68 -31
-74 -29 -5 1 5 20 23 40 44 51 27 46 -31 -8 -66 -62 -94 -61 -139 3 -45 62
-48 64 -98 58 -69 -9 -153 44 -111 69 6 5 4 12 -7 20 -16 12 -16 14 4 40 12
15 22 31 22 35 0 3 -52 12 -115 18 -130 14 -215 41 -245 79 -22 29 -36 70 -26
80 6 7 133 -15 151 -25 5 -4 -1 -9 -15 -12 -37 -9 -37 -36 1 -56 36 -18 134
-30 172 -20 23 5 17 13 -92 124 -131 134 -165 155 -499 304 -191 85 -247 115
-277 148 l-20 23 30 -7 c16 -4 81 -32 144 -62 113 -53 134 -60 165 -48 21 8
21 56 0 100 -24 50 -98 114 -132 114 -31 0 -55 15 -122 73 -25 22 -58 45 -74
52 -28 12 -28 13 34 23 105 19 125 60 71 143 -32 47 -138 154 -128 129 3 -8
17 -42 31 -75 30 -71 33 -98 9 -93 -10 2 -26 27 -40 62 -25 65 -45 91 -85 112
-40 21 -58 18 -58 -10 0 -59 -31 -76 -48 -26 -10 26 -14 28 -39 21 -15 -5 -38
-5 -49 -1 -28 11 -54 68 -54 120 0 57 -11 74 -99 156 -42 40 -73 74 -70 78 3
3 28 -4 56 -16 84 -35 131 -7 96 57 -27 49 -76 113 -92 120 -8 3 -34 -14 -63
-41 -73 -68 -83 -60 -82 59 l1 97 -28 -21 c-28 -20 -29 -21 -22 -96 l6 -75
-41 7 c-32 5 -42 4 -42 -7 0 -7 43 -55 97 -106 54 -51 88 -88 75 -82 -24 12
-26 10 -88 -35 -24 -17 -48 9 -75 84 -36 97 -53 119 -107 143 -43 20 -45 22
-25 31 50 22 37 58 -43 118 -62 47 -63 38 15 122 45 48 71 48 110 0 37 -45 39
-60 9 -65 -45 -6 -33 -101 17 -148 13 -12 28 -19 34 -15 17 10 14 190 -3 223
-31 59 -120 111 -157 92 -28 -16 -58 5 -80 55 -22 50 -17 75 16 75 18 0 24 7
29 35 8 42 38 60 116 70 90 11 115 65 67 143 -40 64 -50 102 -32 129 14 21 21
23 64 17 58 -8 137 15 181 53 36 30 38 46 8 62 -19 9 -10 10 45 5 72 -6 117
10 117 41 0 25 20 27 93 10 104 -24 107 -24 107 -15 0 5 -19 20 -41 33 -37 22
-39 26 -23 35 25 13 133 39 218 52 38 6 81 17 95 25 43 24 82 15 106 -25z
m-1022 -352 c23 -12 22 -41 -2 -62 -25 -22 -92 -32 -120 -17 -34 18 -25 30 27
33 l47 3 -62 24 c-35 13 -63 28 -63 33 0 12 146 0 173 -14z m-444 -613 c17
-24 43 -69 56 -98 13 -30 37 -76 53 -103 17 -27 44 -89 62 -139 17 -49 42
-110 56 -134 13 -24 23 -46 20 -48 -6 -7 -66 58 -93 100 -14 22 -47 92 -74
155 -28 64 -61 137 -74 162 -24 44 -55 124 -55 141 0 20 18 6 49 -36z m138
-447 c27 -32 59 -89 89 -162 45 -111 64 -141 193 -299 18 -23 42 -61 52 -83
10 -23 35 -53 54 -68 43 -33 77 -91 106 -181 26 -82 73 -135 119 -135 25 0 34
-8 65 -65 41 -72 85 -115 119 -115 16 0 22 -6 22 -19 -2 -30 96 -125 150 -146
56 -21 144 -99 144 -126 0 -25 -34 -25 -107 2 -45 17 -74 37 -128 92 -38 40
-90 87 -115 105 -110 84 -217 210 -302 358 -24 41 -111 179 -195 305 -141 214
-234 379 -283 507 -21 56 -16 66 17 30z m865 -374 c54 -15 98 -31 98 -35 0 -5
-18 -18 -40 -29 -22 -11 -40 -25 -40 -30 0 -6 15 -19 33 -30 l32 -20 -45 0
-45 -1 35 -29 c19 -16 43 -32 52 -35 10 -4 15 -12 11 -21 -4 -10 10 -31 36
-58 28 -29 42 -51 39 -64 -2 -12 9 -33 26 -51 16 -17 27 -34 23 -37 -3 -3 -41
13 -84 37 -43 23 -118 64 -168 91 -90 49 -123 73 -113 83 3 3 27 -4 54 -15
l49 -20 -30 27 c-17 16 -48 43 -70 61 -35 28 -37 32 -17 32 31 0 27 15 -13 46
-42 32 -44 44 -6 44 25 0 28 3 23 25 -5 28 -4 29 34 14 27 -10 27 -9 11 9 -17
18 -14 32 6 32 6 0 55 -12 109 -26z m430 -571 c24 -9 59 -26 78 -37 19 -12 55
-28 80 -36 25 -8 45 -19 45 -25 0 -17 -64 -17 -111 -1 -44 15 -144 89 -144
107 0 12 3 12 52 -8z m216 -13 c18 -11 38 -20 45 -20 28 0 87 -22 87 -32 0
-17 -125 -2 -174 21 -22 10 -51 22 -63 26 -39 11 -25 25 25 25 29 0 59 -8 80
-20z m-303 -35 c101 -27 190 -93 155 -115 -41 -26 -242 9 -285 50 -27 26 -40
54 -30 70 9 15 93 12 160 -5z m278 -114 c55 -24 68 -41 32 -41 -31 0 -89 25
-106 46 -17 21 19 18 74 -5z m-1 -124 c29 -13 59 -31 67 -40 36 -44 -104 -3
-143 42 -19 21 -19 21 2 21 12 0 45 -11 74 -23z m3 -392 c77 -39 251 -115 387
-169 226 -89 257 -99 375 -116 232 -34 329 -41 422 -30 72 9 92 8 123 -5 29
-12 78 -15 226 -15 118 0 202 -4 222 -12 31 -10 32 -12 13 -19 -48 -18 -273
-31 -403 -25 -210 11 -560 55 -845 107 -154 28 -364 100 -519 178 -141 72
-252 139 -243 148 9 8 70 -15 118 -45 49 -31 253 -122 272 -122 6 0 -49 31
-123 68 -150 75 -220 117 -220 132 0 18 51 -1 195 -75z m1235 -4 c19 -37 12
-76 -21 -107 -29 -28 -31 -28 -44 -10 -8 10 -16 24 -18 30 -3 7 -11 5 -24 -6
-28 -26 -55 -23 -51 4 4 26 101 108 128 108 11 0 24 -9 30 -19z m1084 -41 c82
-11 151 -22 154 -25 3 -3 -3 -12 -14 -21 -16 -13 -50 -14 -239 -8 -121 3 -223
8 -228 11 -15 9 15 43 46 52 50 14 120 12 281 -9z"/>
<path d="M1676 3759 c-27 -32 -33 -49 -16 -49 6 0 10 8 10 18 0 13 12 22 40
31 44 13 53 31 16 31 -15 0 -34 -12 -50 -31z"/>
<path d="M1089 3684 c-26 -7 -52 -21 -59 -29 -16 -20 -2 -19 50 1 29 12 55 15
91 10 52 -7 119 7 119 25 0 14 -149 9 -201 -7z"/>
<path d="M854 3585 c-10 -25 16 -45 57 -45 50 0 53 25 4 46 -43 18 -54 18 -61
-1z"/>
<path d="M756 3508 c-15 -20 -13 -22 51 -55 66 -33 93 -40 93 -25 0 19 -42 73
-69 87 -40 20 -57 19 -75 -7z"/>
<path d="M1730 3285 c-36 -44 -53 -203 -26 -241 12 -15 19 -17 33 -8 21 13 58
101 68 164 10 60 -6 43 -25 -28 -18 -67 -45 -86 -37 -26 17 119 19 142 9 148
-5 3 -15 -1 -22 -9z"/>
<path d="M1100 3018 c5 -18 8 -42 7 -53 -1 -14 13 -28 53 -52 67 -41 82 -42
46 -4 -22 23 -25 29 -12 34 25 10 19 21 -19 42 -20 10 -47 29 -60 43 l-24 24
9 -34z"/>
<path d="M1044 2881 c4 -6 14 -11 22 -11 9 0 47 -14 85 -31 90 -39 115 -31 29
9 -72 34 -148 52 -136 33z"/>
<path d="M986 2861 c-3 -5 7 -25 22 -46 23 -31 41 -42 111 -66 47 -16 87 -26
90 -23 10 9 -71 72 -140 109 -73 38 -75 39 -83 26z"/>
<path d="M914 2789 c42 -61 156 -126 156 -90 0 19 -136 111 -163 111 -4 0 -1
-10 7 -21z"/>
<path d="M905 2714 c33 -49 23 -60 -26 -27 -22 14 -42 24 -45 21 -6 -7 93
-116 118 -129 26 -14 58 14 58 51 0 35 -22 60 -82 94 l-48 27 25 -37z"/>
<path d="M1610 2585 c-7 -18 -10 -61 -8 -111 4 -71 8 -87 38 -132 18 -29 37
-52 40 -52 26 0 50 88 29 101 -9 5 -14 28 -14 66 0 53 -2 58 -22 61 -13 2 -23
11 -23 20 -1 9 -7 31 -14 47 l-14 30 -12 -30z"/>
<path d="M1200 2536 c0 -15 14 -69 30 -118 45 -134 82 -176 116 -130 11 14 16
15 33 4 19 -11 21 -10 21 9 0 12 8 27 17 34 16 12 15 16 -9 51 -48 71 -158
177 -158 151 0 -1 13 -34 30 -72 57 -135 27 -120 -41 19 -30 62 -39 74 -39 52z"/>
<path d="M1967 1876 c30 -61 47 -64 37 -8 -8 45 -20 62 -45 62 -17 0 -17 -4 8
-54z"/>
<path d="M2350 1256 c0 -24 34 -86 67 -121 23 -25 28 -27 31 -12 4 21 -37 93
-72 126 -22 21 -26 22 -26 7z"/>
</g>
</svg>
